<svg xmlns="http://www.w3.org/2000/svg" viewBox="0 0 256 256">
  <rect width="256" height="256" rx="30" fill="#160812"/>
  <circle cx="128" cy="128" r="78" fill="none" stroke="#f261b8" stroke-width="9" opacity=".4"/>
  <path d="M128 86c10 12 24 18 36 16-8 22-22 36-36 44-14-8-28-22-36-44 12 2 26-4 36-16z" fill="#f261b8"/>
  <path d="M128 86c10 12 24 18 36 16-8 22-22 36-36 44-14-8-28-22-36-44 12 2 26-4 36-16z" fill="none" stroke="#ffe0f4" stroke-width="7"/>
  <circle cx="88" cy="168" r="10" fill="#ff8ad4" opacity=".85"/>
  <circle cx="176" cy="164" r="8" fill="#ff9ad8"/>
  <circle cx="128" cy="196" r="6" fill="#ffe0f4"/>
</svg>
